<svg width="186" height="185" viewBox="0 0 186 185" fill="none" xmlns="http://www.w3.org/2000/svg">
<g clip-path="url(#clip0_42_21655)">
<path opacity="0.6" d="M80.7514 11.6222C87.6176 5.10715 98.3824 5.10714 105.249 11.6222L112.362 18.3717C115.941 21.7682 120.771 23.5258 125.696 23.2249L135.483 22.6268C144.931 22.0494 153.177 28.9689 154.249 38.3733L155.36 48.1159C155.919 53.0187 158.488 57.4692 162.455 60.4046L170.337 66.2377C177.945 71.8683 179.814 82.4695 174.591 90.3627L169.179 98.5399C166.456 102.655 165.563 107.716 166.715 112.514L169.004 122.049C171.213 131.253 165.83 140.575 156.755 143.264L147.353 146.05C142.622 147.451 138.685 150.755 136.483 155.171L132.107 163.946C127.884 172.417 117.768 176.098 109.088 172.325L100.095 168.415C95.5695 166.448 90.4305 166.448 85.9051 168.415L76.9125 172.325C68.2321 176.098 58.1164 172.417 53.8926 163.946L49.5168 155.171C47.3148 150.755 43.3781 147.451 38.6468 146.05L29.2451 143.264C20.1697 140.575 14.7873 131.253 16.9965 122.049L19.285 112.514C20.4367 107.716 19.5443 102.655 16.821 98.5399L11.4093 90.3628C6.18552 82.4695 8.0548 71.8683 15.6632 66.2377L23.5453 60.4046C27.5118 57.4692 30.0813 53.0187 30.6402 48.1159L31.7508 38.3733C32.8228 28.9689 41.0691 22.0494 50.5167 22.6268L60.3042 23.2249C65.2295 23.5258 70.0587 21.7682 73.6382 18.3717L80.7514 11.6222Z" fill="url(#paint0_linear_42_21655)"/>
<path d="M86.0283 44.6821C90.1073 40.8118 96.5022 40.8118 100.581 44.6821L104.807 48.6917C106.933 50.7094 109.802 51.7536 112.728 51.5748L118.542 51.2195C124.155 50.8765 129.054 54.9871 129.69 60.5738L130.35 66.3615C130.682 69.2741 132.209 71.918 134.565 73.6618L139.247 77.127C143.767 80.4719 144.878 86.7696 141.774 91.4587L138.56 96.3164C136.942 98.7609 136.412 101.767 137.096 104.618L138.455 110.282C139.768 115.75 136.57 121.288 131.179 122.885L125.594 124.54C122.783 125.373 120.444 127.335 119.136 129.958L116.537 135.171C114.028 140.203 108.018 142.391 102.862 140.149L97.5195 137.826C94.8312 136.658 91.7783 136.658 89.0899 137.826L83.7478 140.149C78.5911 142.391 72.5818 140.203 70.0726 135.171L67.4731 129.958C66.165 127.335 63.8263 125.373 61.0157 124.54L55.4305 122.885C50.0392 121.288 46.8417 115.75 48.1541 110.282L49.5137 104.618C50.1978 101.767 49.6677 98.7609 48.0499 96.3164L44.835 91.4587C41.7317 86.7696 42.8422 80.4719 47.3621 77.127L52.0445 73.6618C54.4008 71.918 55.9273 69.2741 56.2593 66.3615L56.919 60.5738C57.5559 54.9871 62.4547 50.8765 68.0671 51.2195L73.8815 51.5748C76.8074 51.7536 79.6762 50.7094 81.8027 48.6917L86.0283 44.6821Z" fill="white"/>
<path opacity="0.8" fill-rule="evenodd" clip-rule="evenodd" d="M88.1462 73.2362C87.0049 74.2195 86.4316 75.7662 85.3449 80.7974C84.5934 84.2761 83.3646 88.6747 82.6137 90.5722L81.2498 94.0222L76.969 94.3097L72.6882 94.5972V102.935V111.272L75.7132 111.446C78.0298 111.579 78.8187 111.411 79.0809 110.727C79.3494 110.028 80.3775 109.834 83.8183 109.832C87.2791 109.83 88.6407 109.571 90.2254 108.61C91.3323 107.939 92.4316 107.099 92.6691 106.743C92.9882 106.265 93.2125 106.265 93.5316 106.743C93.7691 107.099 94.8685 107.939 95.9753 108.61C97.56 109.571 98.9216 109.83 102.382 109.832C105.823 109.834 106.851 110.028 107.12 110.727C107.382 111.411 108.171 111.579 110.488 111.446L113.513 111.272V102.935V94.5972L109.232 94.3097L104.951 94.0222L103.587 90.5722C102.836 88.6747 101.607 84.2761 100.856 80.7974C99.1544 72.9217 98.3414 72 93.1004 72C90.3272 72 89.2767 72.2622 88.1462 73.2362ZM91.3754 89.179V103.023L89.6947 104.704C88.133 106.265 87.7058 106.384 83.6573 106.384H79.3006V102.072C79.3006 97.9085 79.3483 97.7596 80.6742 97.7596C81.4298 97.7596 82.5838 97.3071 83.2387 96.7534C84.736 95.4884 87.5655 87.707 88.785 81.5017C89.9281 75.688 90.042 75.3349 90.7826 75.3349C91.1736 75.3349 91.3754 80.0522 91.3754 89.179ZM97.2575 80.8393C98.6335 87.6961 101.604 95.8846 103.093 96.927C103.746 97.3853 104.87 97.7596 105.591 97.7596C106.837 97.7596 106.9 97.9678 106.9 102.072V106.384H102.543C98.4949 106.384 98.0677 106.265 96.506 104.704L94.8253 103.023V89.1313C94.8253 78.4629 94.9881 75.2936 95.5262 75.4729C95.9115 75.6012 96.6906 78.0161 97.2575 80.8393Z" fill="url(#paint1_linear_42_21655)"/>
</g>
<defs>
<linearGradient id="paint0_linear_42_21655" x1="-53.7143" y1="-28.3074" x2="-58.6838" y2="338.797" gradientUnits="userSpaceOnUse">
<stop stop-color="#FE650F"/>
<stop offset="1" stop-color="#FFF500" stop-opacity="0.03125"/>
</linearGradient>
<linearGradient id="paint1_linear_42_21655" x1="60.6586" y1="65.9455" x2="59.6305" y2="144.464" gradientUnits="userSpaceOnUse">
<stop stop-color="#FE650F"/>
<stop offset="1" stop-color="#FFF500" stop-opacity="0.03125"/>
</linearGradient>
<clipPath id="clip0_42_21655">
<rect width="184.624" height="184.624" fill="white" transform="translate(0.688171)"/>
</clipPath>
</defs>
</svg>
